<svg version="1.1" id="Layer_1" xmlns="http://www.w3.org/2000/svg" xmlns:xlink="http://www.w3.org/1999/xlink" x="0px" y="0px"
	 width="100%" viewBox="0 0 500 500" enable-background="new 0 0 500 500" xml:space="preserve">
<path fill="#000000" opacity="1.000000" stroke="none" 
	d="
M242.000000,501.000000 
	C161.333359,501.000000 81.166702,501.000000 1.000043,501.000000 
	C1.000029,334.333405 1.000029,167.666779 1.000014,1.000133 
	C167.666565,1.000088 334.333130,1.000088 500.999756,1.000044 
	C500.999847,167.666519 500.999847,334.333038 500.999939,500.999786 
	C414.833344,501.000000 328.666656,501.000000 242.000000,501.000000 
M253.755478,371.754944 
	C254.527313,370.511414 255.299149,369.267914 256.543976,367.965729 
	C256.543976,367.965729 256.996521,367.816254 257.705933,367.981812 
	C259.166748,366.999695 260.534027,365.823669 262.103394,365.066559 
	C273.204987,359.710876 284.195709,354.084961 295.519531,349.241333 
	C307.526520,344.105438 319.843414,339.688446 332.060272,335.050476 
	C343.922455,330.547180 356.097626,326.749725 367.612549,321.496399 
	C374.147125,318.515198 379.986023,313.312866 380.000336,304.919067 
	C380.081421,257.457458 380.044678,209.995667 380.023041,162.533936 
	C380.018341,152.234116 367.280334,143.350220 357.594604,146.756714 
	C351.537750,148.886963 345.414795,150.828445 339.339935,152.908447 
	C323.765289,158.241028 308.153229,163.471085 292.666595,169.048843 
	C288.861206,170.419418 285.478607,172.963852 281.255859,175.222885 
	C270.014923,181.670349 261.610840,190.756302 256.192505,202.516693 
	C255.128525,204.825989 254.693680,207.425140 253.274841,210.216980 
	C252.572357,213.141251 251.869888,216.065521 250.989578,219.913452 
	C250.990509,236.702438 250.972534,253.491440 250.996414,270.280396 
	C251.043701,303.522888 251.114090,336.765411 251.005142,370.621735 
	C251.061203,371.039673 251.117264,371.457611 251.037720,372.628204 
	C251.480972,373.074005 251.924225,373.519775 252.367493,373.965576 
	C252.627747,373.310059 252.888016,372.654541 253.755478,371.754944 
M120.000816,163.884781 
	C120.001198,178.854813 119.986633,193.824875 120.005066,208.794891 
	C120.044586,240.891876 120.101143,272.988831 120.033752,305.838715 
	C122.291130,315.032623 128.492004,320.392914 137.065308,323.556427 
	C147.780731,327.510376 158.484406,331.499512 169.140579,335.609711 
	C183.088821,340.989685 196.819397,346.989349 210.952026,351.820160 
	C224.721817,356.526917 237.235397,362.990601 248.245651,373.726593 
	C248.823654,372.429169 249.904556,371.132690 249.907059,369.834137 
	C250.000900,321.007172 250.004410,272.179993 249.961044,223.352890 
	C249.959702,221.847275 249.332932,220.342224 249.011963,217.999374 
	C247.948212,205.854828 242.252762,195.873550 234.439453,186.897980 
	C224.105881,175.027161 209.859436,170.041565 195.662491,165.037079 
	C182.183792,160.285797 168.698334,155.542313 155.114441,151.105835 
	C148.697250,149.009995 142.456543,146.577881 135.274048,146.775024 
	C127.256577,146.995087 120.441719,153.837265 120.000816,163.884781 
z"/>
<path fill="#A893FE" opacity="1.000000" stroke="none" 
	d="
M247.866272,372.965942 
	C237.235397,362.990601 224.721817,356.526917 210.952026,351.820160 
	C196.819397,346.989349 183.088821,340.989685 169.140579,335.609711 
	C158.484406,331.499512 147.780731,327.510376 137.065308,323.556427 
	C128.492004,320.392914 122.291130,315.032623 120.341148,305.118286 
	C120.778816,303.417542 121.022652,302.437286 121.023048,301.456909 
	C121.041130,256.716431 121.046120,211.975952 121.000084,167.235535 
	C120.998604,165.805344 120.448219,164.375717 120.153725,162.945831 
	C120.441719,153.837265 127.256577,146.995087 135.274048,146.775024 
	C142.456543,146.577881 148.697250,149.009995 155.114441,151.105835 
	C168.698334,155.542313 182.183792,160.285797 195.662491,165.037079 
	C209.859436,170.041565 224.105881,175.027161 234.439453,186.897980 
	C242.252762,195.873550 247.948212,205.854828 248.963989,218.896851 
	C248.968719,269.322876 249.032288,318.851410 249.023209,368.379944 
	C249.022919,369.908661 248.268890,371.437286 247.866272,372.965942 
z"/>
<path fill="#9993FE" opacity="1.000000" stroke="none" 
	d="
M281.901642,174.968597 
	C285.478607,172.963852 288.861206,170.419418 292.666595,169.048843 
	C308.153229,163.471085 323.765289,158.241028 339.339935,152.908447 
	C345.414795,150.828445 351.537750,148.886963 357.594604,146.756714 
	C367.280334,143.350220 380.018341,152.234116 380.023041,162.533936 
	C380.044678,209.995667 380.081421,257.457458 380.000336,304.919067 
	C379.986023,313.312866 374.147125,318.515198 367.612549,321.496399 
	C356.097626,326.749725 343.922455,330.547180 332.060272,335.050476 
	C319.843414,339.688446 307.526520,344.105438 295.519531,349.241333 
	C284.195709,354.084961 273.204987,359.710876 262.103394,365.066559 
	C260.534027,365.823669 259.166748,366.999695 257.423584,367.571045 
	C261.920349,363.473328 266.384155,359.217163 271.603882,356.325470 
	C274.466278,354.739746 276.203583,353.726959 276.083466,350.311493 
	C276.029938,348.789917 276.929901,345.887939 277.293365,345.904388 
	C281.483887,346.094116 284.428558,340.549255 289.144318,343.358948 
	C289.651215,343.660980 290.770660,342.934967 291.605957,342.685822 
	C291.662872,342.080444 291.719818,341.475098 291.776733,340.869720 
	C288.337006,340.178192 284.897247,339.486664 281.457489,338.795105 
	C281.962555,338.386627 282.467621,337.978119 282.972687,337.569611 
	C282.071320,334.826019 281.971375,330.978912 280.076721,329.602966 
	C277.376129,327.641571 276.962524,325.678955 276.987701,322.943451 
	C277.022522,319.154175 277.277679,315.541260 274.147278,312.284180 
	C271.445129,309.472656 273.094177,306.769165 276.707031,304.675903 
	C278.613983,303.571045 280.562683,300.889160 280.669922,298.824615 
	C280.763580,297.021301 278.654755,294.011292 276.898102,293.438538 
	C273.559143,292.349792 273.133942,290.481628 272.895325,287.552582 
	C272.694122,285.082428 271.911621,282.508820 270.765717,280.303497 
	C269.229797,277.347534 265.766846,274.833771 265.476532,271.898224 
	C264.714874,264.196808 267.926544,256.560089 265.664062,248.505814 
	C264.803925,245.443787 267.646698,241.433395 268.467407,237.780121 
	C269.203735,234.502304 270.572266,231.295303 268.104034,227.811920 
	C266.128754,225.024261 267.971100,218.596863 270.282013,217.080643 
	C272.888916,215.370209 275.702087,213.772430 277.802612,211.539658 
	C280.873352,208.275620 283.031036,204.115967 286.245239,201.034073 
	C289.290558,198.114090 289.704712,194.928497 289.586761,191.166901 
	C289.434113,186.299286 289.549530,181.423279 289.549530,177.210617 
	C292.835480,176.485016 295.352600,176.686798 296.346130,175.553207 
	C298.460327,173.141022 299.993683,172.583679 302.530670,174.793671 
	C303.191986,175.369766 305.171783,175.345810 305.891693,174.773865 
	C308.264038,172.889008 310.336517,170.626663 312.524139,168.509293 
	C311.428192,167.685425 310.210266,166.059616 309.261627,166.203964 
	C307.262085,166.508179 305.381866,167.694687 303.495422,168.607468 
	C302.369659,169.152191 301.398499,170.130539 300.230530,170.453415 
	C296.057526,171.606995 291.830719,172.566422 287.622894,173.593658 
	C285.717468,174.058838 283.808838,174.510696 281.901642,174.968597 
z"/>
<path fill="#9690FE" opacity="1.000000" stroke="none" 
	d="
M281.578735,175.095734 
	C283.808838,174.510696 285.717468,174.058838 287.622894,173.593658 
	C291.830719,172.566422 296.057526,171.606995 300.230530,170.453415 
	C301.398499,170.130539 302.369659,169.152191 303.495422,168.607468 
	C305.381866,167.694687 307.262085,166.508179 309.261627,166.203964 
	C310.210266,166.059616 311.428192,167.685425 312.524139,168.509293 
	C310.336517,170.626663 308.264038,172.889008 305.891693,174.773865 
	C305.171783,175.345810 303.191986,175.369766 302.530670,174.793671 
	C299.993683,172.583679 298.460327,173.141022 296.346130,175.553207 
	C295.352600,176.686798 292.835480,176.485016 289.549530,177.210617 
	C289.549530,181.423279 289.434113,186.299286 289.586761,191.166901 
	C289.704712,194.928497 289.290558,198.114090 286.245239,201.034073 
	C283.031036,204.115967 280.873352,208.275620 277.802612,211.539658 
	C275.702087,213.772430 272.888916,215.370209 270.282013,217.080643 
	C267.971100,218.596863 266.128754,225.024261 268.104034,227.811920 
	C270.572266,231.295303 269.203735,234.502304 268.467407,237.780121 
	C267.646698,241.433395 264.803925,245.443787 265.664062,248.505814 
	C267.926544,256.560089 264.714874,264.196808 265.476532,271.898224 
	C265.766846,274.833771 269.229797,277.347534 270.765717,280.303497 
	C271.911621,282.508820 272.694122,285.082428 272.895325,287.552582 
	C273.133942,290.481628 273.559143,292.349792 276.898102,293.438538 
	C278.654755,294.011292 280.763580,297.021301 280.669922,298.824615 
	C280.562683,300.889160 278.613983,303.571045 276.707031,304.675903 
	C273.094177,306.769165 271.445129,309.472656 274.147278,312.284180 
	C277.277679,315.541260 277.022522,319.154175 276.987701,322.943451 
	C276.962524,325.678955 277.376129,327.641571 280.076721,329.602966 
	C281.971375,330.978912 282.071320,334.826019 282.972687,337.569611 
	C282.467621,337.978119 281.962555,338.386627 281.457489,338.795105 
	C284.897247,339.486664 288.337006,340.178192 291.776733,340.869720 
	C291.719818,341.475098 291.662872,342.080444 291.605957,342.685822 
	C290.770660,342.934967 289.651215,343.660980 289.144318,343.358948 
	C284.428558,340.549255 281.483887,346.094116 277.293365,345.904388 
	C276.929901,345.887939 276.029938,348.789917 276.083466,350.311493 
	C276.203583,353.726959 274.466278,354.739746 271.603882,356.325470 
	C266.384155,359.217163 261.920349,363.473328 257.068848,367.488281 
	C256.996521,367.816254 256.543976,367.965729 255.904541,367.989380 
	C254.193222,367.994354 253.121368,367.975677 252.037231,367.491211 
	C252.068542,318.343414 252.112137,269.661407 252.358734,220.666351 
	C253.030716,216.865738 253.499695,213.378174 253.968674,209.890610 
	C254.693680,207.425140 255.128525,204.825989 256.192505,202.516693 
	C261.610840,190.756302 270.014923,181.670349 281.578735,175.095734 
z"/>
<path fill="#FEFBFF" opacity="1.000000" stroke="none" 
	d="
M248.055954,373.346252 
	C248.268890,371.437286 249.022919,369.908661 249.023209,368.379944 
	C249.032288,318.851410 248.968719,269.322876 248.956879,219.315613 
	C249.332932,220.342224 249.959702,221.847275 249.961044,223.352890 
	C250.004410,272.179993 250.000900,321.007172 249.907059,369.834137 
	C249.904556,371.132690 248.823654,372.429169 248.055954,373.346252 
z"/>
<path fill="#C3BBFB" opacity="1.000000" stroke="none" 
	d="
M252.155731,220.979401 
	C252.112137,269.661407 252.068542,318.343414 251.979721,367.769623 
	C251.681305,369.011841 251.428116,369.509857 251.174927,370.007904 
	C251.114090,336.765411 251.043701,303.522888 250.996414,270.280396 
	C250.972534,253.491440 250.990509,236.702438 251.281631,219.651779 
	C251.767700,219.919861 251.961716,220.449631 252.155731,220.979401 
z"/>
<path fill="#C7BDF1" opacity="1.000000" stroke="none" 
	d="
M120.077271,163.415314 
	C120.448219,164.375717 120.998604,165.805344 121.000084,167.235535 
	C121.046120,211.975952 121.041130,256.716431 121.023048,301.456909 
	C121.022652,302.437286 120.778816,303.417542 120.399635,304.741821 
	C120.101143,272.988831 120.044586,240.891876 120.005066,208.794891 
	C119.986633,193.824875 120.001198,178.854813 120.077271,163.415314 
z"/>
<path fill="#A39CF3" opacity="1.000000" stroke="none" 
	d="
M252.358749,220.666351 
	C251.961716,220.449631 251.767700,219.919861 251.370544,219.189941 
	C251.869888,216.065521 252.572357,213.141251 253.621765,210.053802 
	C253.499695,213.378174 253.030716,216.865738 252.358749,220.666351 
z"/>
<path fill="#A39CF3" opacity="1.000000" stroke="none" 
	d="
M251.090027,370.314819 
	C251.428116,369.509857 251.681305,369.011841 251.992004,368.235413 
	C253.121368,367.975677 254.193222,367.994354 255.668030,368.018707 
	C255.299149,369.267914 254.527313,370.511414 253.122711,371.850647 
	C252.051056,371.922729 251.612198,371.899139 251.173325,371.875549 
	C251.117264,371.457611 251.061203,371.039673 251.090027,370.314819 
z"/>
<path fill="#C3BBFB" opacity="1.000000" stroke="none" 
	d="
M251.105530,372.251892 
	C251.612198,371.899139 252.051056,371.922729 252.819107,371.972656 
	C252.888016,372.654541 252.627747,373.310059 252.367493,373.965576 
	C251.924225,373.519775 251.480972,373.074005 251.105530,372.251892 
z"/>
</svg>